# xmcd
# 
# Track frame offsets:
#     150
#     16937
#     34832
#     50557
#     68092
#     79142
#     96055
#     116405
#     124495
#     139330
#     154937
#     160275
#     181780
#     201817
#     224205
#     242130
# 
# Disc length: 3495
# 
# Revision: 1
# Processed by: cddbd v1.5.2PL0 Copyright (c) Steve Scherf et al.
# Submitted via: fre:ac v1.0.31
# 
DISCID=e80da510
DTITLE=Janis Joplin - Pearl Legacy Edition Disc 1
DYEAR=1971
DGENRE=Rock/Pop
TTITLE0=Move Over
TTITLE1=Cry Baby
TTITLE2=A Woman Left Lonely
TTITLE3=Half Moon
TTITLE4=Buried Alive In The Blues
TTITLE5=My Baby
TTITLE6=Me And Bobby McGee
TTITLE7=Mercedes Benz
TTITLE8=Trust Me
TTITLE9=Get It While You Can
TTITLE10=Happy Birthday, John (Happy Trails) [bonus track]
TTITLE11=Me And Bobby McGee [bonus track - demo version]
TTITLE12=Move Over [bonus track - alternate version]
TTITLE13=Cry Baby [bonus track - alternate version]
TTITLE14=My Baby [bonus track - alternate version]
TTITLE15=Pearl [bonus track - instrumental]
EXTD=
EXTT0=
EXTT1=
EXTT2=
EXTT3=
EXTT4=
EXTT5=
EXTT6=
EXTT7=
EXTT8=
EXTT9=
EXTT10=
EXTT11=
EXTT12=
EXTT13=
EXTT14=
EXTT15=
PLAYORDER=
